Coordinates
version=1
nRows=21
nColumns=22
inDegrees=yes

Units are S.I. units (second, meters, Newtons, ...)
If the header above contains a line with 'inDegrees', this indicates whether rotational values are in degrees (yes) or radians (no).

endheader
time	pelvis_tilt	pelvis_list	pelvis_rotation	pelvis_tx	pelvis_ty	pelvis_tz	hip_flexion_r	hip_adduction_r	hip_rotation_r	knee_angle_r	ankle_angle_r	subtalar_angle_r	hip_flexion_l	hip_adduction_l	hip_rotation_l	knee_angle_l	ankle_angle_l	subtalar_angle_l	lumbar_extension	lumbar_bending	lumbar_rotation
      4.09000000	      3.29679567	     -1.29923865	     74.55496405	      0.50282222	      0.93427655	     -0.65800753	     22.31617853	      6.53880177	      5.53720461	    -22.39993138	      2.12805204	      0.06754674	      1.11183978	      2.39841494	     13.07622327	    -45.69850135	      2.63345743	      8.59525587	     -4.98432562	      4.63391668	     -6.53844263
      4.10000000	      3.44066041	     -1.27303217	     74.83561950	      0.50600759	      0.93526303	     -0.66330266	     21.73616525	      6.67667696	      5.16376812	    -22.19037041	      2.39126960	      0.04886396	      2.27582894	      1.90356614	     11.80981801	    -47.71988595	      1.72665371	      9.67398148	     -5.10911456	      4.77205274	     -6.36356057
      4.11000000	      3.61007486	     -1.27373134	     75.07673208	      0.50922403	      0.93611465	     -0.66838910	     21.21205610	      6.87487835	      4.82269362	    -22.01554374	      2.61599783	      0.03882622	      3.50152358	      1.30058956	     10.46961183	    -49.73640695	      1.04205794	     10.30096286	     -5.22043283	      4.92910914	     -6.11105371
      4.12000000	      3.77382608	     -1.28641546	     75.29248998	      0.51247589	      0.93688331	     -0.67331826	     20.71510742	      7.09856618	      4.55149606	    -21.84602551	      2.84619042	      0.00867413	      4.75052465	      0.63581512	      9.12407380	    -51.69483420	      0.57633285	     10.71238134	     -5.31394787	      5.06126496	     -5.82698681
      4.13000000	      3.93770996	     -1.30888463	     75.47857680	      0.51574545	      0.93757642	     -0.67810629	     20.25357768	      7.35050556	      4.33524435	    -21.70402566	      3.06904735	     -0.06520300	      5.99981206	     -0.09063150	      7.78491268	    -53.56511950	      0.34760287	     10.83220232	     -5.39344319	      5.18054799	     -5.50482728
      4.14000000	      4.09536317	     -1.33867717	     75.63671535	      0.51903321	      0.93821244	     -0.68276640	     19.82630721	      7.62233570	      4.16792741	    -21.59094866	      3.27689017	     -0.20882080	      7.22934229	     -0.85785260	      6.48349654	    -55.31621140	      0.32813791	     10.62054419	     -5.45833251	      5.27760115	     -5.15711472
      4.15000000	      4.24425088	     -1.35741662	     75.77641399	      0.52227598	      0.93884892	     -0.68735785	     19.39323861	      7.89701897	      4.04922773	    -21.47545428	      3.48160916	     -0.44191435	      8.39851202	     -1.63831872	      5.24631345	    -56.90964174	      0.46623144	     10.04354596	     -5.52052996	      5.35659011	     -4.79475529
      4.16000000	      4.38612549	     -1.33569639	     75.89785009	      0.52546923	      0.93953550	     -0.69187265	     18.92607185	      8.16491967	      3.96246505	    -21.36192424	      3.67678337	     -0.72622816	      9.46476830	     -2.40680309	      4.10172305	    -58.32783072	      0.74671693	      9.21888992	     -5.61916640	      5.40851889	     -4.42878336
      4.17000000	      4.51732808	     -1.27542777	     76.01396400	      0.52854196	      0.94027910	     -0.69632986	     18.42440418	      8.41144535	      3.89687767	    -21.24499527	      3.83755689	     -1.00069292	     10.42759204	     -3.14105633	      3.06391140	    -59.55531880	      1.15372820	      8.34694713	     -5.75047653	      5.44196457	     -4.06845129
      4.18000000	      4.61064080	     -1.18320199	     76.14849503	      0.53143680	      0.94105501	     -0.70077076	     17.88423398	      8.59857233	      3.83143621	    -21.09813651	      4.06812140	     -1.32805944	     11.29412134	     -3.77818741	      2.17481284	    -60.57674920	      1.64442809	      7.35799474	     -5.88995910	      5.43292689	     -3.74955083
      4.19000000	      4.68820691	     -1.07119646	     76.28709503	      0.53417133	      0.94184943	     -0.70515243	     17.33468417	      8.75201229	      3.74193777	    -20.95093972	      4.25957753	     -1.61155685	     12.08294245	     -4.35187103	      1.39738954	    -61.40209975	      2.17304695	      6.48993490	     -6.04162154	      5.40912409	     -3.43497332
      4.20000000	      4.73129521	     -0.94986068	     76.44604416	      0.53670780	      0.94263328	     -0.70948582	     16.78335249	      8.85000570	      3.63571258	    -20.79001316	      4.46913207	     -1.87243699	     12.80767265	     -4.82504640	      0.74795582	    -62.02455812	      2.74412362	      5.70888630	     -6.18514657	      5.35642984	     -3.15094448
      4.21000000	      4.75234428	     -0.84335212	     76.61826149	      0.53907860	      0.94336325	     -0.71373632	     16.25837221	      8.91842530	      3.53965598	    -20.62238031	      4.65573263	     -2.03497358	     13.49740955	     -5.22150546	      0.20718920	    -62.45579703	      3.39722013	      5.13576224	     -6.30241342	      5.29290099	     -2.89553647
      4.22000000	      4.73178153	     -0.74328476	     76.80216511	      0.54126896	      0.94402669	     -0.71787521	     15.78554103	      8.93070538	      3.39997122	    -20.49879343	      4.89552218	     -2.25525651	     14.15068554	     -5.51540436	     -0.24566501	    -62.69394918	      3.99866489	      4.47251543	     -6.40483981	      5.19360993	     -2.63137178
      4.23000000	      4.68399823	     -0.67459676	     76.98717922	      0.54334774	      0.94459466	     -0.72188253	     15.38136037	      8.91988837	      3.27675883	    -20.40864117	      5.13097969	     -2.40662790	     14.78903081	     -5.75242905	     -0.65039894	    -62.74567804	      4.66902574	      3.94849502	     -6.46971125	      5.07717326	     -2.40481216
      4.24000000	      4.61185591	     -0.61888014	     77.18392159	      0.54528675	      0.94509343	     -0.72579751	     15.02382296	      8.87538373	      3.12835899	    -20.35145339	      5.39616941	     -2.47008482	     15.38759045	     -5.92055182	     -0.99176456	    -62.61243884	      5.41591006	      3.61027741	     -6.51312519	      4.94503078	     -2.18039836
      4.25000000	      4.54115499	     -0.62659160	     77.34449190	      0.54724090	      0.94546286	     -0.72958064	     14.74801269	      8.86564940	      3.05937025	    -20.30673266	      5.60881363	     -2.63724987	     15.98747969	     -6.10703488	     -1.36560536	    -62.29749409	      6.06193581	      2.90973323	     -6.49312188	      4.82351564	     -1.91512651
      4.26000000	      4.46598567	     -0.61725450	     77.52200465	      0.54909946	      0.94582262	     -0.73333471	     14.47032430	      8.83849884	      2.95717281	    -20.28252147	      5.84490028	     -2.74430198	     16.49572112	     -6.25735404	     -1.70469662	    -61.79171475	      6.77037152	      2.37158492	     -6.48633492	      4.69655898	     -1.68172713
      4.27000000	      4.40206809	     -0.61174078	     77.69293537	      0.55093131	      0.94614366	     -0.73706019	     14.20051725	      8.82779223	      2.87423617	    -20.26624528	      6.07651946	     -2.83126330	     16.92860772	     -6.41913842	     -2.05433715	    -61.10875606	      7.47431765	      1.83748874	     -6.47331575	      4.58227471	     -1.44667503
      4.28000000	      4.34823426	     -0.59798755	     77.87029369	      0.55270658	      0.94645519	     -0.74079339	     13.91967526	      8.82393585	      2.78888038	    -20.24840817	      6.29927412	     -2.91518277	     17.26737739	     -6.57649107	     -2.39230317	    -60.24679464	      8.15221155	      1.27263754	     -6.46326069	      4.47754136	     -1.20957485
      4.29000000	      4.30396286	     -0.57953766	     78.05322707	      0.55443261	      0.94674206	     -0.74453410	     13.63677379	      8.82774837	      2.69759863	    -20.23771788	      6.52315292	     -2.98767776	     17.51995866	     -6.74241635	     -2.73822789	    -59.22469790	      8.82443037	      0.73719092	     -6.45205555	      4.38372750	     -0.99313155
